<?xml version="1.0" encoding="utf-8"?>
<!-- Generator: Adobe Illustrator 17.0.0, SVG Export Plug-In . SVG Version: 6.00 Build 0)  -->
<!DOCTYPE svg PUBLIC "-//W3C//DTD SVG 1.1//EN" "http://www.w3.org/Graphics/SVG/1.1/DTD/svg11.dtd">
<svg version="1.1" id="Layer_1" xmlns="http://www.w3.org/2000/svg" xmlns:xlink="http://www.w3.org/1999/xlink" x="0px" y="0px"
	 width="13.5px" height="10.336px" viewBox="0 0 13.5 10.336" enable-background="new 0 0 13.5 10.336" xml:space="preserve">
<g>
	<path fill="#DAB485" d="M2.953,3.335c-0.414,0.547-0.594,1.247-0.54,2.1h1.48v4.2h-3.68v-3.6c0-1.626,0.353-2.86,1.06-3.7
		c0.707-0.84,1.82-1.433,3.34-1.78l0.48,1.4C4.079,2.329,3.366,2.789,2.953,3.335z M10.943,3.335c-0.418,0.547-0.6,1.247-0.545,2.1
		h1.456v4.2h-3.68v-3.6c0-1.626,0.357-2.86,1.071-3.7s1.837-1.433,3.369-1.78l0.48,1.4C12.077,2.329,11.36,2.789,10.943,3.335z"/>
</g>
</svg>
